<?xml version="1.0" encoding="utf-8"?>
<!-- Generator: Adobe Illustrator 26.0.1, SVG Export Plug-In . SVG Version: 6.00 Build 0)  -->
<svg version="1.1" id="Layer_1" xmlns="http://www.w3.org/2000/svg" xmlns:xlink="http://www.w3.org/1999/xlink" x="0px" y="0px"
	 viewBox="0 0 353 285" style="enable-background:new 0 0 353 285;" xml:space="preserve">
<style type="text/css">
	.st0{opacity:0.6;fill:#4E61AD;}
	.st1{fill:#EEEDED;}
	.st2{fill:#CEA967;}
	.st3{fill:#E5E4E2;}
	.st4{fill:#9F9FA4;}
	.st5{fill:#7C5834;}
	.st6{fill:#E29E70;}
	.st7{fill:#D8D7D5;}
	.st8{fill:#FFFFFF;}
	.st9{fill:#2D3593;}
	.st10{fill:#2D3891;}
	.st11{fill:#695747;}
	.st12{fill:#7055A4;}
	.st13{fill:#7056A4;}
	.st14{fill:#606161;}
	.st15{fill:#9E9D9E;}
	.st16{fill:#B3B3B3;}
</style>
<path class="st0" d="M210.15,277.77h-66.31c-73.88,0-133.77-59.89-133.77-133.77v0c0-73.88,59.89-133.77,133.77-133.77h66.31
	c73.88,0,133.77,59.89,133.77,133.77v0C343.92,217.88,284.03,277.77,210.15,277.77z"/>
<g>
	<path class="st1" d="M182.82,118.31l-56.92,28.85c-1.75,0.89-3.84,0.08-4.66-1.8L83.52,59.31c-0.82-1.88-0.07-4.13,1.68-5.01
		l56.92-28.85c1.75-0.89,3.84-0.08,4.66,1.8l37.72,86.05C185.32,115.18,184.57,117.42,182.82,118.31z"/>
	<path class="st2" d="M128.67,147.03L128.67,147.03c-3.31,1.68-7.25,0.15-8.81-3.41l-36-82.13c-1.56-3.56-0.14-7.8,3.16-9.48l0,0
		c3.31-1.68,7.25-0.15,8.81,3.41l36,82.13C133.39,141.12,131.98,145.36,128.67,147.03z"/>
	<g>
		<path class="st3" d="M124.68,49.5l-19.09,9.68c-0.99,0.5-2.17,0.05-2.63-1.02v0c-0.47-1.06-0.04-2.33,0.95-2.83L123,45.66
			c0.99-0.5,2.17-0.05,2.63,1.02v0C126.09,47.74,125.67,49,124.68,49.5z"/>
		<path class="st3" d="M134.94,50.71l-27.05,13.71c-0.99,0.5-2.17,0.05-2.63-1.02v0c-0.47-1.06-0.04-2.33,0.95-2.83l27.05-13.71
			c0.99-0.5,2.17-0.05,2.63,1.02l0,0C136.35,48.94,135.92,50.21,134.94,50.71z"/>
	</g>
	<g>
		<path class="st3" d="M157.2,81.72l-34,17.23c-0.99,0.5-2.17,0.05-2.63-1.02l-10.95-24.97c-0.47-1.06-0.04-2.33,0.95-2.83l34-17.23
			c0.99-0.5,2.17-0.05,2.63,1.02l10.95,24.97C158.61,79.95,158.19,81.22,157.2,81.72z"/>
	</g>
</g>
<g>
	<path class="st4" d="M200.46,116.96H140.2c-2.67,0-4.84-2.17-4.84-4.84V19.13c0-2.67,2.17-4.84,4.84-4.84h60.25
		c2.67,0,4.84,2.17,4.84,4.84v92.98C205.3,114.79,203.13,116.96,200.46,116.96z"/>
	<path class="st5" d="M143.53,116.96h-3.38c-2.64,0-4.78-2.14-4.78-4.78v-93.1c0-2.64,2.14-4.78,4.78-4.78h3.38
		c2.64,0,4.78,2.14,4.78,4.78v93.1C148.31,114.82,146.17,116.96,143.53,116.96z"/>
	<g>
		<path class="st3" d="M198.12,28.07h-43.21c-0.83,0-1.51-0.68-1.51-1.51v-1.23c0-0.83,0.68-1.51,1.51-1.51h43.21
			c0.83,0,1.51,0.68,1.51,1.51v1.23C199.63,27.39,198.96,28.07,198.12,28.07z"/>
		<path class="st3" d="M198.12,33.86h-43.21c-0.83,0-1.51-0.68-1.51-1.51v-1.23c0-0.83,0.68-1.51,1.51-1.51h43.21
			c0.83,0,1.51,0.68,1.51,1.51v1.23C199.63,33.18,198.96,33.86,198.12,33.86z"/>
	</g>
	<g>
		<path class="st3" d="M196.9,72.12h-40.61c-1.51,0-2.73-1.22-2.73-2.73v-26.4c0-1.51,1.22-2.73,2.73-2.73h40.61
			c1.51,0,2.73,1.22,2.73,2.73v26.4C199.63,70.9,198.41,72.12,196.9,72.12z"/>
	</g>
</g>
<g>
	<path class="st6" d="M224.9,158.02l-56.19-30.47c-1.73-0.94-2.42-3.2-1.55-5.06L207,37.55c0.87-1.86,2.98-2.6,4.71-1.67
		l56.19,30.47c1.73,0.94,2.42,3.2,1.55,5.06l-39.84,84.94C228.73,158.21,226.62,158.95,224.9,158.02z"/>
	<path class="st7" d="M170.47,130.76L170.47,130.76c-3.19-1.73-4.41-6.04-2.73-9.62l38.84-82.58c1.68-3.58,5.63-5.07,8.82-3.34v0
		c3.19,1.73,4.41,6.04,2.73,9.62l-38.84,82.58C177.61,131.01,173.66,132.5,170.47,130.76z"/>
	<g>
		<path class="st3" d="M239.52,66.39l-18.85-10.22c-0.97-0.53-1.37-1.81-0.87-2.86v0c0.49-1.05,1.68-1.47,2.66-0.94l18.85,10.22
			c0.97,0.53,1.37,1.81,0.87,2.86v0C241.69,66.5,240.5,66.92,239.52,66.39z"/>
		<path class="st3" d="M244.95,75.82l-26.7-14.48c-0.97-0.53-1.37-1.81-0.87-2.86v0c0.49-1.05,1.68-1.47,2.66-0.94l26.7,14.48
			c0.97,0.53,1.37,1.81,0.87,2.86v0C247.12,75.93,245.93,76.35,244.95,75.82z"/>
	</g>
	<g>
		<path class="st3" d="M235.93,113.78l-33.56-18.2c-0.97-0.53-1.37-1.81-0.87-2.86l11.56-24.65c0.49-1.05,1.68-1.47,2.66-0.94
			l33.56,18.2c0.97,0.53,1.37,1.81,0.87,2.86l-11.56,24.65C238.1,113.89,236.91,114.31,235.93,113.78z"/>
	</g>
</g>
<g>
	<path class="st8" d="M114.69,178.91L114.69,178.91c0.12,3.26-1.91,5.9-4.54,5.9l-60.74-0.08c-2.63,0-4.86-2.65-4.98-5.91l0,0
		c-0.12-3.26,1.91-5.9,4.54-5.9l60.74,0.08C112.33,173,114.56,175.64,114.69,178.91z"/>
	<path class="st9" d="M114.84,171.22L114.84,171.22c0.05,0.74-2.04,1.33-4.67,1.31l-60.72-0.32c-2.63-0.01-4.8-0.62-4.85-1.36l0,0
		c-0.05-0.74,2.04-1.33,4.67-1.31l60.72,0.32C112.62,169.87,114.79,170.48,114.84,171.22z"/>
	<path class="st10" d="M114.84,187.22L114.84,187.22c0.05,0.74-2.04,1.33-4.67,1.31l-60.72-0.32c-2.63-0.01-4.8-0.62-4.85-1.36l0,0
		c-0.05-0.74,2.04-1.33,4.67-1.31l60.72,0.32C112.62,185.87,114.8,186.48,114.84,187.22z"/>
	<path class="st7" d="M111.58,176.03L111.58,176.03c0.04,0.22-1.9,0.39-4.34,0.39l-56.31-0.1c-2.44,0-4.45-0.18-4.5-0.4l0,0
		c-0.04-0.22,1.9-0.39,4.34-0.39l56.31,0.1C109.52,175.63,111.53,175.81,111.58,176.03z"/>
	<path class="st7" d="M110.62,177.82L110.62,177.82c0.04,0.22-1.9,0.39-4.34,0.39l-56.31-0.1c-2.44,0-4.45-0.18-4.5-0.4l0,0
		c-0.04-0.22,1.9-0.39,4.34-0.39l56.31,0.1C108.56,177.42,110.57,177.6,110.62,177.82z"/>
	<path class="st7" d="M111.62,179.82L111.62,179.82c0.04,0.22-1.9,0.39-4.34,0.39l-56.31-0.1c-2.44,0-4.45-0.18-4.5-0.4l0,0
		c-0.04-0.22,1.9-0.39,4.34-0.39l56.31,0.1C109.56,179.42,111.57,179.6,111.62,179.82z"/>
	<path class="st7" d="M112.62,181.82L112.62,181.82c0.04,0.22-1.9,0.39-4.34,0.39l-56.31-0.1c-2.44,0-4.45-0.18-4.5-0.4l0,0
		c-0.04-0.22,1.9-0.39,4.34-0.39l56.31,0.1C110.56,181.42,112.57,181.6,112.62,181.82z"/>
</g>
<g>
	<path class="st8" d="M122.32,198.41L122.32,198.41c0.12,3.26-1.91,5.9-4.54,5.9l-60.74-0.08c-2.63,0-4.86-2.65-4.98-5.91l0,0
		c-0.12-3.26,1.91-5.9,4.54-5.9l60.74,0.08C119.97,192.5,122.2,195.14,122.32,198.41z"/>
	<path class="st11" d="M122.48,190.72L122.48,190.72c0.05,0.74-2.04,1.33-4.67,1.31l-60.72-0.32c-2.63-0.01-4.8-0.62-4.85-1.36l0,0
		c-0.05-0.74,2.04-1.33,4.67-1.31l60.72,0.32C120.26,189.37,122.43,189.98,122.48,190.72z"/>
	<path class="st11" d="M122.48,206.72L122.48,206.72c0.05,0.74-2.04,1.33-4.67,1.31l-60.72-0.32c-2.63-0.01-4.8-0.62-4.85-1.36l0,0
		c-0.05-0.74,2.04-1.33,4.67-1.31l60.72,0.32C120.26,205.37,122.43,205.98,122.48,206.72z"/>
	<path class="st7" d="M119.21,195.53L119.21,195.53c0.04,0.22-1.9,0.39-4.34,0.39l-56.31-0.1c-2.44,0-4.45-0.18-4.5-0.4l0,0
		c-0.04-0.22,1.9-0.39,4.34-0.39l56.31,0.1C117.15,195.13,119.17,195.31,119.21,195.53z"/>
	<path class="st7" d="M118.25,197.32L118.25,197.32c0.04,0.22-1.9,0.39-4.34,0.39l-56.31-0.1c-2.44,0-4.45-0.18-4.5-0.4l0,0
		c-0.04-0.22,1.9-0.39,4.34-0.39l56.31,0.1C116.19,196.92,118.21,197.1,118.25,197.32z"/>
	<path class="st7" d="M119.25,199.32L119.25,199.32c0.04,0.22-1.9,0.39-4.34,0.39l-56.31-0.1c-2.44,0-4.45-0.18-4.5-0.4l0,0
		c-0.04-0.22,1.9-0.39,4.34-0.39l56.31,0.1C117.19,198.92,119.21,199.1,119.25,199.32z"/>
	<path class="st7" d="M120.25,201.32L120.25,201.32c0.04,0.22-1.9,0.39-4.34,0.39l-56.31-0.1c-2.44,0-4.45-0.18-4.5-0.4l0,0
		c-0.04-0.22,1.9-0.39,4.34-0.39l56.31,0.1C118.19,200.92,120.21,201.1,120.25,201.32z"/>
</g>
<g>
	<path class="st8" d="M119.32,217.41L119.32,217.41c0.12,3.26-1.91,5.9-4.54,5.9l-60.74-0.08c-2.63,0-4.86-2.65-4.98-5.91l0,0
		c-0.12-3.26,1.91-5.9,4.54-5.9l60.74,0.08C116.97,211.5,119.2,214.14,119.32,217.41z"/>
	<path class="st7" d="M119.48,209.72L119.48,209.72c0.05,0.74-2.04,1.33-4.67,1.31l-60.72-0.32c-2.63-0.01-4.8-0.62-4.85-1.36l0,0
		c-0.05-0.74,2.04-1.33,4.67-1.31l60.72,0.32C117.26,208.37,119.43,208.98,119.48,209.72z"/>
	<path class="st7" d="M119.48,225.72L119.48,225.72c0.05,0.74-2.04,1.33-4.67,1.31l-60.72-0.32c-2.63-0.01-4.8-0.62-4.85-1.36l0,0
		c-0.05-0.74,2.04-1.33,4.67-1.31l60.72,0.32C117.26,224.37,119.43,224.98,119.48,225.72z"/>
	<path class="st7" d="M116.21,214.53L116.21,214.53c0.04,0.22-1.9,0.39-4.34,0.39l-56.31-0.1c-2.44,0-4.45-0.18-4.5-0.4l0,0
		c-0.04-0.22,1.9-0.39,4.34-0.39l56.31,0.1C114.15,214.13,116.17,214.31,116.21,214.53z"/>
	<path class="st7" d="M115.25,216.32L115.25,216.32c0.04,0.22-1.9,0.39-4.34,0.39l-56.31-0.1c-2.44,0-4.45-0.18-4.5-0.4l0,0
		c-0.04-0.22,1.9-0.39,4.34-0.39l56.31,0.1C113.19,215.92,115.21,216.1,115.25,216.32z"/>
	<path class="st7" d="M116.25,218.32L116.25,218.32c0.04,0.22-1.9,0.39-4.34,0.39l-56.31-0.1c-2.44,0-4.45-0.18-4.5-0.4l0,0
		c-0.04-0.22,1.9-0.39,4.34-0.39l56.31,0.1C114.19,217.92,116.21,218.1,116.25,218.32z"/>
	<path class="st7" d="M117.25,220.32L117.25,220.32c0.04,0.22-1.9,0.39-4.34,0.39l-56.31-0.1c-2.44,0-4.45-0.18-4.5-0.4l0,0
		c-0.04-0.22,1.9-0.39,4.34-0.39l56.31,0.1C115.19,219.92,117.21,220.1,117.25,220.32z"/>
</g>
<g>
	<path class="st8" d="M162.65,227.37L162.65,227.37c-2.28,1.64-5.24,1.57-6.62-0.17l-31.68-40.03c-1.37-1.73-0.63-4.47,1.65-6.11
		l0,0c2.28-1.64,5.24-1.57,6.62,0.17l31.68,40.03C165.67,222.99,164.93,225.73,162.65,227.37z"/>
	<path class="st7" d="M168.26,223.8L168.26,223.8c-0.51,0.39-2.02-0.71-3.39-2.45l-31.49-40.14c-1.36-1.74-2.06-3.46-1.55-3.85h0
		c0.51-0.39,2.02,0.71,3.39,2.45l31.49,40.14C168.07,221.69,168.77,223.41,168.26,223.8z"/>
	<path class="st7" d="M156.76,231.45L156.76,231.45c-0.51,0.39-2.02-0.71-3.39-2.45l-31.49-40.14c-1.36-1.74-2.06-3.46-1.55-3.85
		l0,0c0.51-0.39,2.02,0.71,3.39,2.45l31.49,40.14C156.57,229.34,157.26,231.07,156.76,231.45z"/>
	<path class="st7" d="M163.1,223.95L163.1,223.95c-0.13,0.13-1.27-1.06-2.54-2.67l-29.35-37.13c-1.27-1.61-2.19-3.02-2.06-3.16l0,0
		c0.13-0.13,1.27,1.06,2.54,2.67l29.35,37.13C162.31,222.4,163.23,223.81,163.1,223.95z"/>
	<path class="st7" d="M161.31,224.17L161.31,224.17c-0.13,0.13-1.27-1.06-2.54-2.67l-29.35-37.13c-1.27-1.61-2.19-3.02-2.06-3.16
		l0,0c0.13-0.13,1.27,1.06,2.54,2.67l29.35,37.13C160.52,222.62,161.44,224.04,161.31,224.17z"/>
	<path class="st7" d="M160.39,225.79L160.39,225.79c-0.13,0.13-1.27-1.06-2.54-2.67l-29.35-37.13c-1.27-1.61-2.19-3.02-2.06-3.16
		l0,0c0.13-0.13,1.27,1.06,2.54,2.67l29.35,37.13C159.6,224.24,160.53,225.65,160.39,225.79z"/>
	<path class="st7" d="M159.48,227.4L159.48,227.4c-0.13,0.13-1.27-1.06-2.54-2.67l-29.35-37.13c-1.27-1.61-2.19-3.02-2.06-3.16l0,0
		c0.13-0.13,1.27,1.06,2.54,2.67l29.35,37.13C158.69,225.85,159.61,227.27,159.48,227.4z"/>
</g>
<g>
	<path class="st8" d="M110.11,159.41L110.11,159.41c0.12,3.26-1.91,5.9-4.54,5.9l-60.74-0.08c-2.63,0-4.86-2.65-4.98-5.91l0,0
		c-0.12-3.26,1.91-5.9,4.54-5.9l60.74,0.08C107.76,153.5,109.99,156.14,110.11,159.41z"/>
	<path class="st12" d="M110.27,151.72L110.27,151.72c0.05,0.74-2.04,1.33-4.67,1.31l-60.72-0.32c-2.63-0.01-4.8-0.62-4.85-1.36l0,0
		c-0.05-0.74,2.04-1.33,4.67-1.31l60.72,0.32C108.05,150.37,110.22,150.98,110.27,151.72z"/>
	<path class="st13" d="M110.27,167.72L110.27,167.72c0.05,0.74-2.04,1.33-4.67,1.31l-60.72-0.32c-2.63-0.01-4.8-0.62-4.85-1.36l0,0
		c-0.05-0.74,2.04-1.33,4.67-1.31l60.72,0.32C108.05,166.37,110.22,166.98,110.27,167.72z"/>
	<path class="st7" d="M107,156.53L107,156.53c0.04,0.22-1.9,0.39-4.34,0.39l-56.31-0.1c-2.44,0-4.45-0.18-4.5-0.4l0,0
		c-0.04-0.22,1.9-0.39,4.34-0.39l56.31,0.1C104.94,156.13,106.96,156.31,107,156.53z"/>
	<path class="st7" d="M106.04,158.32L106.04,158.32c0.04,0.22-1.9,0.39-4.34,0.39l-56.31-0.1c-2.44,0-4.45-0.18-4.5-0.4l0,0
		c-0.04-0.22,1.9-0.39,4.34-0.39l56.31,0.1C103.98,157.92,106,158.1,106.04,158.32z"/>
	<path class="st7" d="M107.04,160.32L107.04,160.32c0.04,0.22-1.9,0.39-4.34,0.39l-56.31-0.1c-2.44,0-4.45-0.18-4.5-0.4l0,0
		c-0.04-0.22,1.9-0.39,4.34-0.39l56.31,0.1C104.98,159.92,107,160.1,107.04,160.32z"/>
	<path class="st7" d="M108.04,162.32L108.04,162.32c0.04,0.22-1.9,0.39-4.34,0.39l-56.31-0.1c-2.44,0-4.45-0.18-4.5-0.4l0,0
		c-0.04-0.22,1.9-0.39,4.34-0.39l56.31,0.1C105.98,161.92,108,162.1,108.04,162.32z"/>
</g>
<g>
	<path class="st14" d="M205.57,271.33h-12.15c-9.67,0-17.59-7.91-17.59-17.59v-60.87c0-9.67,7.91-17.59,17.59-17.59h12.15
		c9.67,0,17.59,7.91,17.59,17.59v60.87C223.16,263.42,215.24,271.33,205.57,271.33z"/>
	<path class="st15" d="M208.82,267.14h-18.64c-6.6,0-12-5.4-12-12v-63.67c0-6.6,5.4-12,12-12h18.64c6.6,0,12,5.4,12,12v63.67
		C220.82,261.74,215.42,267.14,208.82,267.14z"/>
	<path class="st8" d="M206.66,264.51h-14.33c-6.6,0-12-5.4-12-12v-57.17c0-6.6,5.4-12,12-12h14.33c6.6,0,12,5.4,12,12v57.17
		C218.66,259.11,213.26,264.51,206.66,264.51z"/>
	<path class="st7" d="M211.68,234.72h-24.37c-1.62,0-2.93-1.31-2.93-2.93v-36.57c0-1.62,1.31-2.93,2.93-2.93h24.37
		c1.62,0,2.93,1.31,2.93,2.93v36.57C214.61,233.41,213.3,234.72,211.68,234.72z"/>
	<path class="st7" d="M206.15,264.83h-13.31c-6.91,0-12.51-5.6-12.51-12.51v-5.7c0-6.91,5.6-12.51,12.51-12.51h13.31
		c6.91,0,12.51,5.6,12.51,12.51v5.7C218.66,259.23,213.06,264.83,206.15,264.83z"/>
	<rect x="180.33" y="233.8" class="st8" width="38.33" height="12.26"/>
	<g>
		<g>
			<path class="st16" d="M204.45,252.23h-2.62c-0.96,0-1.73-0.78-1.73-1.73v-1.15c0-0.96,0.78-1.73,1.73-1.73h2.62
				c0.96,0,1.73,0.78,1.73,1.73v1.15C206.19,251.45,205.41,252.23,204.45,252.23z"/>
			<path class="st16" d="M211.45,252.11h-2.62c-0.96,0-1.73-0.78-1.73-1.73v-1.15c0-0.96,0.78-1.73,1.73-1.73h2.62
				c0.96,0,1.73,0.78,1.73,1.73v1.15C213.19,251.34,212.41,252.11,211.45,252.11z"/>
			<path class="st16" d="M197.5,252.2h-2.62c-0.96,0-1.73-0.78-1.73-1.73v-1.15c0-0.96,0.78-1.73,1.73-1.73h2.62
				c0.96,0,1.73,0.78,1.73,1.73v1.15C199.24,251.43,198.46,252.2,197.5,252.2z"/>
			<path class="st16" d="M190.62,252.11H188c-0.96,0-1.73-0.78-1.73-1.73v-1.15c0-0.96,0.78-1.73,1.73-1.73h2.62
				c0.96,0,1.73,0.78,1.73,1.73v1.15C192.35,251.34,191.58,252.11,190.62,252.11z"/>
		</g>
		<g>
			<path class="st16" d="M204.37,257.42h-2.62c-0.96,0-1.73-0.78-1.73-1.73v-1.15c0-0.96,0.78-1.73,1.73-1.73h2.62
				c0.96,0,1.73,0.78,1.73,1.73v1.15C206.1,256.64,205.33,257.42,204.37,257.42z"/>
			<path class="st16" d="M211.37,257.3h-2.62c-0.96,0-1.73-0.78-1.73-1.73v-1.15c0-0.96,0.78-1.73,1.73-1.73h2.62
				c0.96,0,1.73,0.78,1.73,1.73v1.15C213.1,256.52,212.33,257.3,211.37,257.3z"/>
			<path class="st16" d="M197.42,257.39h-2.62c-0.96,0-1.73-0.78-1.73-1.73v-1.15c0-0.96,0.78-1.73,1.73-1.73h2.62
				c0.96,0,1.73,0.78,1.73,1.73v1.15C199.15,256.61,198.38,257.39,197.42,257.39z"/>
			<path class="st16" d="M190.54,257.3h-2.62c-0.96,0-1.73-0.78-1.73-1.73v-1.15c0-0.96,0.78-1.73,1.73-1.73h2.62
				c0.96,0,1.73,0.78,1.73,1.73v1.15C192.27,256.52,191.49,257.3,190.54,257.3z"/>
		</g>
		<g>
			<path class="st16" d="M204.37,262.82h-2.62c-0.96,0-1.73-0.78-1.73-1.73v-1.15c0-0.96,0.78-1.73,1.73-1.73h2.62
				c0.96,0,1.73,0.78,1.73,1.73v1.15C206.1,262.05,205.33,262.82,204.37,262.82z"/>
			<path class="st16" d="M211.37,262.71h-2.62c-0.96,0-1.73-0.78-1.73-1.73v-1.15c0-0.96,0.78-1.73,1.73-1.73h2.62
				c0.96,0,1.73,0.78,1.73,1.73v1.15C213.1,261.93,212.33,262.71,211.37,262.71z"/>
			<path class="st16" d="M197.42,262.8h-2.62c-0.96,0-1.73-0.78-1.73-1.73v-1.15c0-0.96,0.78-1.73,1.73-1.73h2.62
				c0.96,0,1.73,0.78,1.73,1.73v1.15C199.15,262.02,198.38,262.8,197.42,262.8z"/>
			<path class="st16" d="M190.54,262.71h-2.62c-0.96,0-1.73-0.78-1.73-1.73v-1.15c0-0.96,0.78-1.73,1.73-1.73h2.62
				c0.96,0,1.73,0.78,1.73,1.73v1.15C192.27,261.93,191.49,262.71,190.54,262.71z"/>
		</g>
	</g>
</g>
<g>
	<path class="st7" d="M278.12,262.08h-28.56c-9.67,0-17.59-7.91-17.59-17.59v-75.92c0-9.67,7.91-17.59,17.59-17.59h28.56
		c9.67,0,17.59,7.91,17.59,17.59v75.92C295.71,254.16,287.8,262.08,278.12,262.08z"/>
	<path class="st15" d="M280.56,257.23h-33.43c-6.6,0-12-5.4-12-12v-77.4c0-6.6,5.4-12,12-12h33.43c6.6,0,12,5.4,12,12v77.4
		C292.56,251.83,287.16,257.23,280.56,257.23z"/>
	<path class="st8" d="M277.66,254.19h-27.63c-6.6,0-12-5.4-12-12V172.3c0-6.6,5.4-12,12-12h27.63c6.6,0,12,5.4,12,12v69.88
		C289.66,248.79,284.26,254.19,277.66,254.19z"/>
	<path class="st7" d="M281.27,222.02h-34.85c-1.62,0-2.93-1.31-2.93-2.93v-45.51c0-1.62,1.31-2.93,2.93-2.93h34.85
		c1.62,0,2.93,1.31,2.93,2.93v45.51C284.2,220.71,282.89,222.02,281.27,222.02z"/>
	<path class="st7" d="M277.15,254.56h-26.61c-6.91,0-12.51-5.6-12.51-12.51v-10.51c0-6.91,5.6-12.51,12.51-12.51h26.61
		c6.91,0,12.51,5.6,12.51,12.51v10.51C289.66,248.95,284.06,254.56,277.15,254.56z"/>
	<rect x="238.03" y="218.66" class="st8" width="51.63" height="14.18"/>
	<g>
		<g>
			<path class="st16" d="M271.12,239.99h-4.73c-0.96,0-1.73-0.78-1.73-1.73v-1.87c0-0.96,0.78-1.73,1.73-1.73h4.73
				c0.96,0,1.73,0.78,1.73,1.73v1.87C272.86,239.21,272.08,239.99,271.12,239.99z"/>
			<path class="st16" d="M280.55,239.85h-4.73c-0.96,0-1.73-0.78-1.73-1.73v-1.87c0-0.96,0.78-1.73,1.73-1.73h4.73
				c0.96,0,1.73,0.78,1.73,1.73v1.87C282.28,239.07,281.51,239.85,280.55,239.85z"/>
			<path class="st16" d="M261.76,239.95h-4.73c-0.96,0-1.73-0.78-1.73-1.73v-1.87c0-0.96,0.78-1.73,1.73-1.73h4.73
				c0.96,0,1.73,0.78,1.73,1.73v1.87C263.49,239.18,262.72,239.95,261.76,239.95z"/>
			<path class="st16" d="M252.49,239.85h-4.73c-0.96,0-1.73-0.78-1.73-1.73v-1.87c0-0.96,0.78-1.73,1.73-1.73h4.73
				c0.96,0,1.73,0.78,1.73,1.73v1.87C254.22,239.07,253.45,239.85,252.49,239.85z"/>
		</g>
		<g>
			<path class="st16" d="M271.01,245.98h-4.73c-0.96,0-1.73-0.78-1.73-1.73v-1.87c0-0.96,0.78-1.73,1.73-1.73h4.73
				c0.96,0,1.73,0.78,1.73,1.73v1.87C272.74,245.21,271.97,245.98,271.01,245.98z"/>
			<path class="st16" d="M280.44,245.85h-4.73c-0.96,0-1.73-0.78-1.73-1.73v-1.87c0-0.96,0.78-1.73,1.73-1.73h4.73
				c0.96,0,1.73,0.78,1.73,1.73v1.87C282.17,245.07,281.39,245.85,280.44,245.85z"/>
			<path class="st16" d="M261.65,245.95h-4.73c-0.96,0-1.73-0.78-1.73-1.73v-1.87c0-0.96,0.78-1.73,1.73-1.73h4.73
				c0.96,0,1.73,0.78,1.73,1.73v1.87C263.38,245.17,262.61,245.95,261.65,245.95z"/>
			<path class="st16" d="M252.38,245.85h-4.73c-0.96,0-1.73-0.78-1.73-1.73v-1.87c0-0.96,0.78-1.73,1.73-1.73h4.73
				c0.96,0,1.73,0.78,1.73,1.73v1.87C254.11,245.07,253.34,245.85,252.38,245.85z"/>
		</g>
		<g>
			<path class="st16" d="M271.01,252.24h-4.73c-0.96,0-1.73-0.78-1.73-1.73v-1.87c0-0.96,0.78-1.73,1.73-1.73h4.73
				c0.96,0,1.73,0.78,1.73,1.73v1.87C272.74,251.46,271.97,252.24,271.01,252.24z"/>
			<path class="st16" d="M280.44,252.1h-4.73c-0.96,0-1.73-0.78-1.73-1.73v-1.87c0-0.96,0.78-1.73,1.73-1.73h4.73
				c0.96,0,1.73,0.78,1.73,1.73v1.87C282.17,251.32,281.39,252.1,280.44,252.1z"/>
			<path class="st16" d="M261.65,252.2h-4.73c-0.96,0-1.73-0.78-1.73-1.73v-1.87c0-0.96,0.78-1.73,1.73-1.73h4.73
				c0.96,0,1.73,0.78,1.73,1.73v1.87C263.38,251.43,262.61,252.2,261.65,252.2z"/>
			<path class="st16" d="M252.38,252.1h-4.73c-0.96,0-1.73-0.78-1.73-1.73v-1.87c0-0.96,0.78-1.73,1.73-1.73h4.73
				c0.96,0,1.73,0.78,1.73,1.73v1.87C254.11,251.32,253.34,252.1,252.38,252.1z"/>
		</g>
	</g>
</g>
</svg>
