<?xml version="1.0" encoding="utf-8"?>
<!-- Generator: Adobe Illustrator 26.0.1, SVG Export Plug-In . SVG Version: 6.00 Build 0)  -->
<svg version="1.1" id="Layer_1" xmlns="http://www.w3.org/2000/svg" xmlns:xlink="http://www.w3.org/1999/xlink" x="0px" y="0px"
	 viewBox="0 0 351 278" style="enable-background:new 0 0 351 278;" xml:space="preserve">
<style type="text/css">
	.st0{opacity:0.6;fill:#485FC7;}
	.st1{fill:#EDEDEE;}
	.st2{fill:#D7D7D5;}
	.st3{fill:#E5E4E2;}
	.st4{fill:#A0A0A5;}
	.st5{fill:#AAA39D;}
	.st6{fill:#CCE2D3;}
	.st7{fill:#FFFFFF;}
	.st8{fill:#4F4F4E;}
	.st9{fill:#333232;}
</style>
<path class="st0" d="M211.73,273.24h-66.31c-73.88,0-133.77-59.89-133.77-133.77v0c0-73.88,59.89-133.77,133.77-133.77h66.31
	c73.88,0,133.77,59.89,133.77,133.77v0C345.49,213.35,285.6,273.24,211.73,273.24z"/>
<g>
	<path class="st1" d="M244.67,179.4l-50.59,24.89c-1.56,0.77-3.41,0.07-4.14-1.55l-33.52-74.22c-0.73-1.62-0.07-3.56,1.49-4.32
		l50.59-24.89c1.56-0.77,3.41-0.07,4.14,1.55l33.52,74.22C246.9,176.7,246.23,178.63,244.67,179.4z"/>
	<path class="st2" d="M196.47,203.11L196.47,203.11c-2.87,1.41-6.3,0.13-7.66-2.87L157.54,131c-1.35-3-0.12-6.58,2.75-7.99h0
		c2.87-1.41,6.3-0.13,7.66,2.87l31.27,69.24C200.57,198.12,199.34,201.7,196.47,203.11z"/>
	<g>
		<path class="st3" d="M193,120.05l-16.97,8.35c-0.88,0.43-1.92,0.04-2.34-0.88l0,0c-0.41-0.92-0.04-2.01,0.84-2.44l16.97-8.35
			c0.88-0.43,1.92-0.04,2.34,0.88v0C194.25,118.53,193.88,119.62,193,120.05z"/>
		<path class="st3" d="M202.11,121.09l-24.04,11.83c-0.88,0.43-1.92,0.04-2.34-0.88l0,0c-0.41-0.92-0.04-2.01,0.84-2.44l24.04-11.83
			c0.88-0.43,1.92-0.04,2.34,0.88l0,0C203.37,119.57,202.99,120.66,202.11,121.09z"/>
	</g>
	<g>
		<path class="st3" d="M221.9,147.84l-30.22,14.86c-0.88,0.43-1.92,0.04-2.34-0.88l-9.73-21.54c-0.41-0.92-0.04-2.01,0.84-2.44
			l30.22-14.86c0.88-0.43,1.92-0.04,2.34,0.88l9.73,21.54C223.16,146.32,222.78,147.41,221.9,147.84z"/>
	</g>
</g>
<g>
	<path class="st4" d="M259.81,178.23h-52.48c-2.67,0-4.84-2.17-4.84-4.84V94.52c0-2.67,2.17-4.84,4.84-4.84h52.48
		c2.67,0,4.84,2.17,4.84,4.84v78.88C264.65,176.07,262.49,178.23,259.81,178.23z"/>
	<path class="st5" d="M209.22,178.23h-1.94c-2.64,0-4.78-2.14-4.78-4.78V94.46c0-2.64,2.14-4.78,4.78-4.78h1.94
		c2.64,0,4.78,2.14,4.78,4.78v78.99C214,176.09,211.86,178.23,209.22,178.23z"/>
	<g>
		<path class="st3" d="M258.11,101.56h-38.07c-0.83,0-1.51-0.68-1.51-1.51V99.4c0-0.83,0.68-1.51,1.51-1.51h38.07
			c0.83,0,1.51,0.68,1.51,1.51v0.65C259.62,100.88,258.94,101.56,258.11,101.56z"/>
		<path class="st3" d="M258.11,106.55h-38.07c-0.83,0-1.51-0.68-1.51-1.51v-0.65c0-0.83,0.68-1.51,1.51-1.51h38.07
			c0.83,0,1.51,0.68,1.51,1.51v0.65C259.62,105.88,258.94,106.55,258.11,106.55z"/>
	</g>
	<g>
		<path class="st3" d="M256.89,139.56H221.4c-1.51,0-2.73-1.22-2.73-2.73v-22.02c0-1.51,1.22-2.73,2.73-2.73h35.49
			c1.51,0,2.73,1.22,2.73,2.73v22.02C259.62,138.33,258.4,139.56,256.89,139.56z"/>
	</g>
</g>
<g>
	<path class="st6" d="M282.07,213.65l-49.94-26.29c-1.54-0.81-2.15-2.76-1.38-4.36l35.41-73.26c0.77-1.6,2.65-2.25,4.18-1.44
		l49.94,26.29c1.54,0.81,2.15,2.76,1.38,4.36l-35.41,73.26C285.48,213.82,283.61,214.46,282.07,213.65z"/>
	<path class="st2" d="M234.49,188.61L234.49,188.61c-2.84-1.49-3.98-5.1-2.55-8.06l33.03-68.35c1.43-2.96,4.89-4.15,7.73-2.66h0
		c2.84,1.49,3.98,5.1,2.55,8.06l-33.03,68.35C240.79,188.91,237.33,190.1,234.49,188.61z"/>
	<g>
		<path class="st3" d="M295.08,134.62l-16.75-8.82c-0.87-0.46-1.21-1.56-0.78-2.46h0c0.44-0.9,1.49-1.27,2.36-0.81l16.75,8.82
			c0.87,0.46,1.21,1.56,0.78,2.46v0C297,134.71,295.94,135.08,295.08,134.62z"/>
		<path class="st3" d="M299.9,142.75l-23.73-12.49c-0.87-0.46-1.21-1.56-0.78-2.46l0,0c0.44-0.9,1.49-1.27,2.36-0.81l23.73,12.49
			c0.87,0.46,1.21,1.56,0.78,2.46l0,0C301.82,142.85,300.77,143.21,299.9,142.75z"/>
	</g>
	<g>
		<path class="st3" d="M291.88,175.5l-29.83-15.7c-0.87-0.46-1.21-1.56-0.78-2.46l10.28-21.26c0.44-0.9,1.49-1.27,2.36-0.81
			l29.83,15.7c0.87,0.46,1.21,1.56,0.78,2.46l-10.28,21.26C293.81,175.59,292.75,175.95,291.88,175.5z"/>
	</g>
</g>
<g>
	<path class="st7" d="M116.26,174.38L116.26,174.38c0.12,3.26-1.91,5.9-4.54,5.9l-60.74-0.08c-2.63,0-4.86-2.65-4.98-5.91v0
		c-0.12-3.26,1.91-5.9,4.54-5.9l60.74,0.08C113.91,168.47,116.14,171.11,116.26,174.38z"/>
	<path class="st2" d="M116.42,166.69L116.42,166.69c0.05,0.74-2.04,1.33-4.67,1.31l-60.72-0.32c-2.63-0.01-4.8-0.62-4.85-1.36l0,0
		c-0.05-0.74,2.04-1.33,4.67-1.31l60.72,0.32C114.2,165.34,116.37,165.95,116.42,166.69z"/>
	<path class="st2" d="M116.42,182.69L116.42,182.69c0.05,0.74-2.04,1.33-4.67,1.31l-60.72-0.32c-2.63-0.01-4.8-0.62-4.85-1.36v0
		c-0.05-0.74,2.04-1.33,4.67-1.31l60.72,0.32C114.2,181.34,116.37,181.95,116.42,182.69z"/>
	<path class="st2" d="M113.15,171.5L113.15,171.5c0.04,0.22-1.9,0.39-4.34,0.39l-56.31-0.1c-2.44,0-4.45-0.18-4.5-0.4l0,0
		c-0.04-0.22,1.9-0.39,4.34-0.39l56.31,0.1C111.09,171.1,113.1,171.28,113.15,171.5z"/>
	<path class="st2" d="M112.19,173.29L112.19,173.29c0.04,0.22-1.9,0.39-4.34,0.39l-56.31-0.1c-2.44,0-4.45-0.18-4.5-0.4l0,0
		c-0.04-0.22,1.9-0.39,4.34-0.39l56.31,0.1C110.13,172.89,112.14,173.07,112.19,173.29z"/>
	<path class="st2" d="M113.19,175.29L113.19,175.29c0.04,0.22-1.9,0.39-4.34,0.39l-56.31-0.1c-2.44,0-4.45-0.18-4.5-0.4l0,0
		c-0.04-0.22,1.9-0.39,4.34-0.39l56.31,0.1C111.13,174.89,113.14,175.07,113.19,175.29z"/>
	<path class="st2" d="M114.19,177.29L114.19,177.29c0.04,0.22-1.9,0.39-4.34,0.39l-56.31-0.1c-2.44,0-4.45-0.18-4.5-0.4l0,0
		c-0.04-0.22,1.9-0.39,4.34-0.39l56.31,0.1C112.13,176.89,114.14,177.07,114.19,177.29z"/>
</g>
<g>
	<path class="st7" d="M123.89,193.88L123.89,193.88c0.12,3.26-1.91,5.9-4.54,5.9l-60.74-0.08c-2.63,0-4.86-2.65-4.98-5.91v0
		c-0.12-3.26,1.91-5.9,4.54-5.9l60.74,0.08C121.54,187.97,123.77,190.61,123.89,193.88z"/>
	<path class="st2" d="M124.05,186.19L124.05,186.19c0.05,0.74-2.04,1.33-4.67,1.31l-60.72-0.32c-2.63-0.01-4.8-0.62-4.85-1.36l0,0
		c-0.05-0.74,2.04-1.33,4.67-1.31l60.72,0.32C121.83,184.84,124,185.45,124.05,186.19z"/>
	<path class="st2" d="M124.05,202.19L124.05,202.19c0.05,0.74-2.04,1.33-4.67,1.31l-60.72-0.32c-2.63-0.01-4.8-0.62-4.85-1.36l0,0
		c-0.05-0.74,2.04-1.33,4.67-1.31l60.72,0.32C121.83,200.84,124,201.45,124.05,202.19z"/>
	<path class="st2" d="M120.78,191L120.78,191c0.04,0.22-1.9,0.39-4.34,0.39l-56.31-0.1c-2.44,0-4.45-0.18-4.5-0.4v0
		c-0.04-0.22,1.9-0.39,4.34-0.39l56.31,0.1C118.73,190.6,120.74,190.78,120.78,191z"/>
	<path class="st2" d="M119.82,192.79L119.82,192.79c0.04,0.22-1.9,0.39-4.34,0.39l-56.31-0.1c-2.44,0-4.45-0.18-4.5-0.4l0,0
		c-0.04-0.22,1.9-0.39,4.34-0.39l56.31,0.1C117.76,192.39,119.78,192.57,119.82,192.79z"/>
	<path class="st2" d="M120.82,194.79L120.82,194.79c0.04,0.22-1.9,0.39-4.34,0.39l-56.31-0.1c-2.44,0-4.45-0.18-4.5-0.4l0,0
		c-0.04-0.22,1.9-0.39,4.34-0.39l56.31,0.1C118.76,194.39,120.78,194.57,120.82,194.79z"/>
	<path class="st2" d="M121.82,196.79L121.82,196.79c0.04,0.22-1.9,0.39-4.34,0.39l-56.31-0.1c-2.44,0-4.45-0.18-4.5-0.4l0,0
		c-0.04-0.22,1.9-0.39,4.34-0.39l56.31,0.1C119.76,196.39,121.78,196.57,121.82,196.79z"/>
</g>
<g>
	<path class="st7" d="M120.89,212.88L120.89,212.88c0.12,3.26-1.91,5.9-4.54,5.9l-60.74-0.08c-2.63,0-4.86-2.65-4.98-5.91v0
		c-0.12-3.26,1.91-5.9,4.54-5.9l60.74,0.08C118.54,206.97,120.77,209.61,120.89,212.88z"/>
	<path class="st2" d="M121.05,205.19L121.05,205.19c0.05,0.74-2.04,1.33-4.67,1.31l-60.72-0.32c-2.63-0.01-4.8-0.62-4.85-1.36l0,0
		c-0.05-0.74,2.04-1.33,4.67-1.31l60.72,0.32C118.83,203.84,121,204.45,121.05,205.19z"/>
	<path class="st2" d="M121.05,221.19L121.05,221.19c0.05,0.74-2.04,1.33-4.67,1.31l-60.72-0.32c-2.63-0.01-4.8-0.62-4.85-1.36l0,0
		c-0.05-0.74,2.04-1.33,4.67-1.31l60.72,0.32C118.83,219.84,121,220.45,121.05,221.19z"/>
	<path class="st2" d="M117.78,210L117.78,210c0.04,0.22-1.9,0.39-4.34,0.39l-56.31-0.1c-2.44,0-4.45-0.18-4.5-0.4v0
		c-0.04-0.22,1.9-0.39,4.34-0.39l56.31,0.1C115.73,209.6,117.74,209.78,117.78,210z"/>
	<path class="st2" d="M116.82,211.79L116.82,211.79c0.04,0.22-1.9,0.39-4.34,0.39l-56.31-0.1c-2.44,0-4.45-0.18-4.5-0.4l0,0
		c-0.04-0.22,1.9-0.39,4.34-0.39l56.31,0.1C114.76,211.39,116.78,211.57,116.82,211.79z"/>
	<path class="st2" d="M117.82,213.79L117.82,213.79c0.04,0.22-1.9,0.39-4.34,0.39l-56.31-0.1c-2.44,0-4.45-0.18-4.5-0.4l0,0
		c-0.04-0.22,1.9-0.39,4.34-0.39l56.31,0.1C115.76,213.39,117.78,213.57,117.82,213.79z"/>
	<path class="st2" d="M118.82,215.79L118.82,215.79c0.04,0.22-1.9,0.39-4.34,0.39l-56.31-0.1c-2.44,0-4.45-0.18-4.5-0.4l0,0
		c-0.04-0.22,1.9-0.39,4.34-0.39l56.31,0.1C116.76,215.39,118.78,215.57,118.82,215.79z"/>
</g>
<g>
	<path class="st7" d="M164.22,222.84L164.22,222.84c-2.28,1.64-5.24,1.57-6.62-0.17l-31.68-40.03c-1.37-1.73-0.63-4.47,1.65-6.11h0
		c2.28-1.64,5.24-1.57,6.62,0.17l31.68,40.03C167.24,218.46,166.51,221.2,164.22,222.84z"/>
	<path class="st2" d="M169.83,219.27L169.83,219.27c-0.51,0.39-2.02-0.71-3.39-2.45l-31.49-40.14c-1.36-1.74-2.06-3.46-1.55-3.85
		l0,0c0.51-0.39,2.02,0.71,3.39,2.45l31.49,40.14C169.64,217.16,170.34,218.88,169.83,219.27z"/>
	<path class="st2" d="M158.33,226.92L158.33,226.92c-0.51,0.39-2.02-0.71-3.39-2.45l-31.49-40.14c-1.36-1.74-2.06-3.46-1.55-3.85
		l0,0c0.51-0.39,2.02,0.71,3.39,2.45l31.49,40.14C158.14,224.82,158.84,226.54,158.33,226.92z"/>
	<path class="st2" d="M164.67,219.42L164.67,219.42c-0.13,0.13-1.27-1.06-2.54-2.67l-29.35-37.13c-1.27-1.61-2.19-3.02-2.06-3.16
		l0,0c0.13-0.13,1.27,1.06,2.54,2.67l29.35,37.13C163.88,217.87,164.8,219.28,164.67,219.42z"/>
	<path class="st2" d="M162.88,219.64L162.88,219.64c-0.13,0.13-1.27-1.06-2.54-2.67l-29.35-37.13c-1.27-1.61-2.19-3.02-2.06-3.16
		l0,0c0.13-0.13,1.27,1.06,2.54,2.67l29.35,37.13C162.09,218.09,163.01,219.51,162.88,219.64z"/>
	<path class="st2" d="M161.97,221.26L161.97,221.26c-0.13,0.13-1.27-1.06-2.54-2.67l-29.35-37.13c-1.27-1.61-2.19-3.02-2.06-3.16
		l0,0c0.13-0.13,1.27,1.06,2.54,2.67l29.35,37.13C161.18,219.71,162.1,221.12,161.97,221.26z"/>
	<path class="st2" d="M161.05,222.87L161.05,222.87c-0.13,0.13-1.27-1.06-2.54-2.67l-29.35-37.13c-1.27-1.61-2.19-3.02-2.06-3.16
		l0,0c0.13-0.13,1.27,1.06,2.54,2.67l29.35,37.13C160.26,221.32,161.18,222.74,161.05,222.87z"/>
</g>
<g>
	<g>
		<path class="st8" d="M147.8,124.52H51.61c-1.51,0-2.73-1.22-2.73-2.73V58.77c0-1.51,1.22-2.73,2.73-2.73h96.19
			c1.51,0,2.73,1.22,2.73,2.73v63.02C150.53,123.3,149.31,124.52,147.8,124.52z"/>
	</g>
	<g>
		<path class="st3" d="M142.21,117.19H57.68c-1.51,0-2.73-1.22-2.73-2.73V66.11c0-1.51,1.22-2.73,2.73-2.73h84.53
			c1.51,0,2.73,1.22,2.73,2.73v48.35C144.94,115.97,143.71,117.19,142.21,117.19z"/>
	</g>
	<g>
		<path class="st7" d="M139.08,114.99H61.32c-1.97,0-3.56-1.6-3.56-3.56V69.04c0-1.97,1.6-3.56,3.56-3.56h77.76
			c1.97,0,3.56,1.6,3.56,3.56v42.39C142.64,113.39,141.05,114.99,139.08,114.99z"/>
	</g>
	<g>
		<path class="st9" d="M140.65,143.72H64.33c-2.37,0-4.29-1.92-4.29-4.29l0,0c0-2.37,1.92-4.29,4.29-4.29h76.32
			c2.37,0,4.29,1.92,4.29,4.29l0,0C144.94,141.8,143.02,143.72,140.65,143.72z"/>
	</g>
	<g>
		<path class="st9" d="M106.69,122.99v15.6c0,2.32-1.88,4.2-4.2,4.2h0c-2.32,0-4.2-1.88-4.2-4.2v-15.6c0-2.32,1.88-4.2,4.2-4.2h0
			C104.81,118.78,106.69,120.66,106.69,122.99z"/>
	</g>
	<path class="st3" d="M92.69,98.68H70.7c-1.68,0-3.04-1.36-3.04-3.04v0c0-1.68,1.36-3.04,3.04-3.04h21.99
		c1.68,0,3.04,1.36,3.04,3.04v0C95.73,97.32,94.37,98.68,92.69,98.68z"/>
	<path class="st3" d="M113.82,78.87H71.36c-1.68,0-3.04-1.36-3.04-3.04v0c0-1.68,1.36-3.04,3.04-3.04h42.46
		c1.68,0,3.04,1.36,3.04,3.04v0C116.86,77.51,115.5,78.87,113.82,78.87z"/>
	<path class="st3" d="M103.65,89H70.7c-1.68,0-3.04-1.36-3.04-3.04v0c0-1.68,1.36-3.04,3.04-3.04h32.95c1.68,0,3.04,1.36,3.04,3.04
		v0C106.69,87.64,105.33,89,103.65,89z"/>
	<path class="st3" d="M107.79,108.35H70.7c-1.68,0-3.04-1.36-3.04-3.04v0c0-1.68,1.36-3.04,3.04-3.04h37.09
		c1.68,0,3.04,1.36,3.04,3.04v0C110.83,106.99,109.47,108.35,107.79,108.35z"/>
</g>
</svg>
