<?xml version="1.0" encoding="utf-8"?>
<!-- Generator: Adobe Illustrator 26.0.1, SVG Export Plug-In . SVG Version: 6.00 Build 0)  -->
<svg version="1.1" id="Layer_1" xmlns="http://www.w3.org/2000/svg" xmlns:xlink="http://www.w3.org/1999/xlink" x="0px" y="0px"
	 viewBox="0 0 350 286" style="enable-background:new 0 0 350 286;" xml:space="preserve">
<style type="text/css">
	.st0{opacity:0.6;fill:#4F62AD;}
	.st1{fill:#606161;}
	.st2{fill:#E5E4E3;}
	.st3{fill:#464748;}
</style>
<path class="st0" d="M210.25,274.68h-66.31c-73.88,0-133.77-59.89-133.77-133.77v0c0-73.88,59.89-133.77,133.77-133.77h66.31
	c73.88,0,133.77,59.89,133.77,133.77v0C344.01,214.8,284.12,274.68,210.25,274.68z"/>
<g>
	<path class="st1" d="M116.83,77.13l66.05,93.45c1.67,2.37,1.18,5.72-1.1,7.46l-52.53,40.07c-2.28,1.74-5.51,1.22-7.18-1.14
		l-66.05-93.45c-1.67-2.37-1.18-5.72,1.1-7.46l52.53-40.07C111.92,74.25,115.15,74.76,116.83,77.13z"/>
	<path class="st2" d="M100.07,98.95l6.27,8.87c2.07,2.93,1.46,7.04-1.36,9.19l-6.51,4.97c-2.82,2.15-6.78,1.52-8.85-1.41l-6.27-8.87
		c-2.07-2.93-1.46-7.04,1.36-9.19l6.51-4.97C94.04,95.39,98,96.02,100.07,98.95z"/>
	<polygon class="st3" points="71.75,104.89 144.05,207.18 133.41,215.3 61.12,113.01 	"/>
	<path class="st2" d="M138.61,150.12l20.62,29.18c2.18,3.09,1.54,7.43-1.43,9.7l-6.87,5.24c-2.97,2.27-7.15,1.6-9.33-1.49
		l-20.62-29.18c-2.18-3.09-1.54-7.43,1.43-9.7l6.87-5.24C132.25,146.37,136.43,147.03,138.61,150.12z"/>
	<path class="st2" d="M112.25,84.67l62.32,88.18c0.73,1.03,0.51,2.48-0.48,3.24l-4.3,3.28c-0.99,0.76-2.39,0.54-3.12-0.5
		l-62.32-88.18c-0.73-1.03-0.51-2.48,0.48-3.24l4.3-3.28C110.13,83.42,111.52,83.64,112.25,84.67z"/>
</g>
<g>
	<path class="st1" d="M185.69,63.83l16.15,114.71c0.41,2.9-1.54,5.63-4.34,6.05l-64.48,9.8c-2.79,0.42-5.42-1.6-5.82-4.51
		L111.05,75.17c-0.41-2.9,1.54-5.63,4.34-6.05l64.48-9.8C182.66,58.89,185.28,60.92,185.69,63.83z"/>
	<path class="st2" d="M161.04,74.93l1.53,10.88c0.51,3.59-1.89,6.93-5.35,7.46l-7.99,1.21c-3.46,0.53-6.67-1.96-7.18-5.55
		l-1.53-10.88c-0.51-3.59,1.89-6.93,5.35-7.46l7.99-1.21C157.32,68.85,160.54,71.34,161.04,74.93z"/>
	<polygon class="st3" points="133.35,66.39 151.02,191.96 137.97,193.94 120.29,68.37 	"/>
	<path class="st2" d="M171.98,138.91l5.04,35.82c0.53,3.79-1.99,7.31-5.64,7.87l-8.43,1.28c-3.65,0.55-7.04-2.07-7.57-5.86
		l-5.04-35.82c-0.53-3.79,1.99-7.31,5.64-7.87l8.43-1.28C168.06,132.49,171.45,135.12,171.98,138.91z"/>
	<path class="st2" d="M178.25,68.26l15.24,108.25c0.18,1.27-0.67,2.44-1.88,2.63l-5.28,0.8c-1.22,0.19-2.35-0.69-2.53-1.96
		L168.56,69.73c-0.18-1.27,0.67-2.44,1.88-2.63l5.28-0.8C176.94,66.12,178.07,66.99,178.25,68.26z"/>
</g>
<g>
	<path class="st1" d="M240.92,69.82l-14.74,114.75c-0.37,2.9-2.97,4.94-5.77,4.53l-64.63-9.47c-2.8-0.41-4.79-3.12-4.41-6.03
		l14.74-114.75c0.37-2.9,2.97-4.94,5.77-4.53l64.63,9.47C239.31,64.21,241.3,66.92,240.92,69.82z"/>
	<path class="st2" d="M214.28,73.26l-1.4,10.89c-0.46,3.59-3.65,6.1-7.11,5.59l-8.01-1.17c-3.47-0.51-5.9-3.83-5.44-7.43l1.4-10.89
		c0.46-3.59,3.65-6.1,7.11-5.59l8.01,1.17C212.3,66.34,214.74,69.67,214.28,73.26z"/>
	<polygon class="st3" points="189.89,56.97 173.75,182.57 160.67,180.65 176.8,55.05 	"/>
	<path class="st2" d="M207.91,137.82l-4.6,35.83c-0.49,3.79-3.85,6.43-7.5,5.9l-8.45-1.24c-3.66-0.54-6.23-4.04-5.74-7.84l4.6-35.83
		c0.49-3.79,3.85-6.43,7.5-5.9l8.45,1.24C205.83,130.52,208.4,134.03,207.91,137.82z"/>
	<path class="st2" d="M232.59,71.9l-13.91,108.28c-0.16,1.27-1.28,2.15-2.51,1.97l-5.29-0.78c-1.22-0.18-2.08-1.35-1.92-2.62
		l13.91-108.28c0.16-1.27,1.28-2.15,2.51-1.97l5.29,0.78C231.9,69.46,232.75,70.63,232.59,71.9z"/>
</g>
<g>
	<path class="st1" d="M297.91,118.81l-67.97,91.95c-1.72,2.33-4.96,2.77-7.2,0.98l-51.68-41.24c-2.24-1.79-2.67-5.15-0.94-7.48
		l67.97-91.95c1.72-2.33,4.96-2.77,7.2-0.98l51.68,41.24C299.21,113.12,299.63,116.49,297.91,118.81z"/>
	<path class="st2" d="M273.07,108.18l-6.45,8.72c-2.13,2.88-6.1,3.42-8.87,1.21l-6.41-5.11c-2.77-2.21-3.29-6.34-1.16-9.22
		l6.45-8.72c2.13-2.88,6.1-3.42,8.87-1.21l6.41,5.11C274.68,101.17,275.2,105.3,273.07,108.18z"/>
	<polygon class="st3" points="259.68,81.58 185.28,182.23 174.82,173.88 249.22,73.23 	"/>
	<path class="st2" d="M236.51,160.9l-21.22,28.71c-2.25,3.04-6.44,3.61-9.36,1.28l-6.76-5.39c-2.92-2.33-3.47-6.69-1.23-9.73
		l21.22-28.71c2.25-3.04,6.44-3.61,9.36-1.28l6.76,5.39C238.21,153.5,238.76,157.86,236.51,160.9z"/>
	<path class="st2" d="M289.67,116.35l-64.14,86.77c-0.75,1.01-2.15,1.21-3.13,0.43l-4.23-3.38c-0.98-0.78-1.16-2.23-0.41-3.25
		l64.14-86.77c0.75-1.01,2.15-1.21,3.13-0.43l4.23,3.38C290.23,113.88,290.42,115.34,289.67,116.35z"/>
</g>
</svg>
