<?xml version="1.0" encoding="utf-8"?>
<!-- Generator: Adobe Illustrator 26.0.1, SVG Export Plug-In . SVG Version: 6.00 Build 0)  -->
<svg version="1.1" id="Layer_1" xmlns="http://www.w3.org/2000/svg" xmlns:xlink="http://www.w3.org/1999/xlink" x="0px" y="0px"
	 viewBox="0 0 346 281.5" style="enable-background:new 0 0 346 281.5;" xml:space="preserve">
<style type="text/css">
	.st0{fill:#4E61AD;}
	.st1{fill:#7B8BC6;}
	.st2{fill:#A5B2DB;}
</style>
<path class="st0" d="M123.43,260.6H31.86c-6.6,0-12-5.4-12-12V25.42c0-6.6,5.4-12,12-12h91.57c6.6,0,12,5.4,12,12V248.6
	C135.43,255.2,130.03,260.6,123.43,260.6z"/>
<path class="st1" d="M210.31,259.6h-40.93c-6.6,0-12-5.4-12-12V24.42c0-6.6,5.4-12,12-12h40.93c6.6,0,12,5.4,12,12V247.6
	C222.31,254.2,216.91,259.6,210.31,259.6z"/>
<path class="st2" d="M295.19,115.68h-40.93c-6.6,0-12-5.4-12-12V25.42c0-6.6,5.4-12,12-12h40.93c6.6,0,12,5.4,12,12v78.27
	C307.19,110.28,301.79,115.68,295.19,115.68z"/>
<path class="st2" d="M295.19,260.6h-40.93c-6.6,0-12-5.4-12-12v-78.27c0-6.6,5.4-12,12-12h40.93c6.6,0,12,5.4,12,12v78.27
	C307.19,255.2,301.79,260.6,295.19,260.6z"/>
</svg>
