<?xml version="1.0" encoding="utf-8"?>
<!-- Generator: Adobe Illustrator 26.0.1, SVG Export Plug-In . SVG Version: 6.00 Build 0)  -->
<svg version="1.1" id="Layer_1" xmlns="http://www.w3.org/2000/svg" xmlns:xlink="http://www.w3.org/1999/xlink" x="0px" y="0px"
	 viewBox="0 0 820.66 157.76" style="enable-background:new 0 0 820.66 157.76;" xml:space="preserve">
<style type="text/css">
	.st0{fill:#4E62AD;}
	.st1{fill:#677ABC;}
	.st2{fill:#98A8D6;}
</style>
<g>
	<g>
		<path class="st0" d="M245.96,89.05v20.12h-6.37V54.31h14.94c5.81,0,10.32,1.45,13.52,4.36c3.2,2.91,4.8,7.01,4.8,12.32
			c0,5.28-1.78,9.61-5.33,12.99c-3.55,3.38-8.35,5.07-14.39,5.07H245.96z M245.96,60.13v23.11h6.67c4.4,0,7.75-1.04,10.07-3.12
			c2.31-2.08,3.47-5.02,3.47-8.82c0-3.72-1.06-6.52-3.18-8.38c-2.12-1.86-5.31-2.79-9.56-2.79H245.96z"/>
		<path class="st0" d="M313.46,91h-27.45c0.1,4.41,1.26,7.81,3.47,10.2c2.21,2.38,5.31,3.58,9.31,3.58c1.74,0,3.5-0.26,5.25-0.78
			s3.49-1.36,5.21-2.51l2.88,4.48c-2.2,1.43-4.4,2.47-6.6,3.14c-2.2,0.66-4.61,0.99-7.24,0.99c-5.86,0-10.44-1.76-13.73-5.28
			s-4.94-8.43-4.97-14.73c-0.03-6.3,1.62-11.38,4.95-15.23c3.32-3.85,7.64-5.78,12.95-5.78c5.06,0,8.98,1.66,11.77,4.99
			c2.79,3.33,4.19,7.94,4.19,13.83V91z M307.09,85.88c-0.03-3.62-0.9-6.45-2.62-8.47c-1.72-2.03-4.08-3.04-7.09-3.04
			c-2.96,0-5.47,1.04-7.53,3.12c-2.06,2.08-3.32,4.88-3.77,8.4H307.09z"/>
		<path class="st0" d="M342.01,75.36c-0.48-0.15-0.91-0.26-1.29-0.33c-0.38-0.06-0.86-0.09-1.44-0.09c-3.16,0-5.65,1.36-7.47,4.07
			c-1.82,2.72-2.73,6.11-2.73,10.2v19.97h-6.22V70h6.22v7.77h0.15c0.88-2.75,2.24-4.85,4.06-6.29c1.82-1.44,3.92-2.16,6.29-2.16
			c0.78,0,1.45,0.04,1.99,0.11c0.54,0.08,1.03,0.19,1.46,0.34L342.01,75.36z"/>
		<path class="st0" d="M346.22,106.23l2.96-4.82c1.69,1.12,3.35,1.97,4.97,2.54c1.62,0.57,3.36,0.86,5.23,0.86
			c2.65,0,4.67-0.5,6.05-1.49c1.38-0.99,2.07-2.49,2.07-4.48c0-1.61-0.61-2.96-1.84-4.07c-1.23-1.11-3.14-2-5.75-2.66
			c-4.85-1.25-8.18-2.82-9.97-4.72c-1.79-1.9-2.69-4.24-2.69-7.02c0-3.21,1.2-5.9,3.6-8.05s5.75-3.23,10.05-3.23
			c2.07,0,4.04,0.27,5.92,0.8c1.87,0.54,3.78,1.45,5.73,2.75l-2.77,4.74c-1.77-1.12-3.36-1.91-4.76-2.35
			c-1.4-0.45-2.83-0.67-4.27-0.67c-2.5,0-4.41,0.47-5.73,1.4s-1.97,2.28-1.97,4.04s0.68,3.09,2.03,3.98
			c1.35,0.89,3.53,1.73,6.54,2.52c3.94,1.07,6.89,2.57,8.85,4.5c1.96,1.93,2.94,4.45,2.94,7.56c0,3.62-1.27,6.48-3.81,8.59
			c-2.54,2.1-6.02,3.16-10.45,3.16c-2.38,0-4.66-0.33-6.84-0.99C350.12,108.44,348.09,107.48,346.22,106.23z"/>
		<path class="st0" d="M399.04,110.09c-5.74,0-10.32-1.83-13.75-5.49c-3.43-3.66-5.14-8.51-5.14-14.56c0-6.55,1.77-11.68,5.31-15.38
			c3.54-3.7,8.37-5.56,14.48-5.58c5.79-0.03,10.31,1.77,13.56,5.39c3.25,3.62,4.87,8.61,4.87,14.96c0,6.27-1.75,11.29-5.25,15.03
			C409.63,108.22,404.93,110.09,399.04,110.09z M399.5,104.81c4.02,0,7.11-1.32,9.27-3.96c2.16-2.64,3.24-6.37,3.24-11.19
			c0-4.92-1.09-8.7-3.26-11.34c-2.17-2.64-5.26-3.96-9.25-3.96c-4,0-7.15,1.38-9.48,4.13c-2.33,2.75-3.49,6.53-3.49,11.32
			c0,4.64,1.18,8.3,3.53,10.98C392.41,103.47,395.55,104.81,399.5,104.81z"/>
		<path class="st0" d="M460.55,109.17h-6.22V86.83c0-4.16-0.75-7.27-2.26-9.35s-3.76-3.12-6.77-3.12c-3.11,0-5.68,1.18-7.72,3.54
			s-3.05,5.34-3.05,8.93v22.34h-6.22V70h6.22v6.5h0.15c1.47-2.47,3.26-4.33,5.38-5.57c2.12-1.24,4.58-1.86,7.36-1.86
			c4.25,0,7.49,1.38,9.75,4.15c2.25,2.77,3.38,6.77,3.38,11.99V109.17z"/>
		<path class="st0" d="M499.76,109.17h-6.22v-6.12h-0.15c-1.34,2.35-2.99,4.11-4.95,5.28s-4.24,1.76-6.84,1.76
			c-3.64,0-6.59-1.07-8.84-3.21c-2.25-2.14-3.37-4.99-3.37-8.53c0-3.34,1.14-6.11,3.41-8.3c2.28-2.19,5.5-3.6,9.67-4.21l11.07-1.49
			v-0.88c0-3.29-0.76-5.63-2.28-7.02c-1.52-1.39-3.54-2.08-6.07-2.08c-2.02,0-3.97,0.38-5.84,1.15c-1.87,0.77-3.63,1.94-5.27,3.52
			l-3.64-3.79c2.17-2.12,4.49-3.67,6.94-4.67c2.45-1,5.18-1.49,8.19-1.49c4.7,0,8.24,1.22,10.62,3.65
			c2.38,2.44,3.56,6.09,3.56,10.96V109.17z M493.54,93.26v-3.9l-9.37,1.3c-2.86,0.41-5,1.14-6.45,2.18
			c-1.44,1.05-2.16,2.69-2.16,4.94c0,2.35,0.68,4.14,2.03,5.38c1.35,1.24,3,1.86,4.95,1.86c3.36,0,6.04-1.11,8.02-3.33
			C492.54,99.46,493.54,96.65,493.54,93.26z"/>
		<path class="st0" d="M511.78,109.17v-58H518v58H511.78z"/>
		<path class="st0" d="M580.3,60.13h-21.24v18.98h19.64v5.78h-19.64v24.29h-6.37V54.31h27.61V60.13z"/>
		<path class="st0" d="M592.96,60.63c-1.26,0-2.33-0.43-3.18-1.28c-0.86-0.85-1.29-1.91-1.29-3.16c0-1.25,0.43-2.3,1.29-3.16
			c0.86-0.85,1.92-1.28,3.18-1.28s2.33,0.43,3.19,1.28s1.29,1.91,1.29,3.16c0,1.25-0.43,2.3-1.29,3.16S594.22,60.63,592.96,60.63z
			 M595.99,109.17h-6.22V70h6.22V109.17z"/>
		<path class="st0" d="M640.82,109.17h-6.22V86.83c0-4.16-0.75-7.27-2.26-9.35s-3.76-3.12-6.77-3.12c-3.11,0-5.68,1.18-7.72,3.54
			s-3.05,5.34-3.05,8.93v22.34h-6.22V70h6.22v6.5h0.15c1.47-2.47,3.26-4.33,5.38-5.57c2.12-1.24,4.58-1.86,7.36-1.86
			c4.25,0,7.49,1.38,9.75,4.15c2.25,2.77,3.38,6.77,3.38,11.99V109.17z"/>
		<path class="st0" d="M680.02,109.17h-6.22v-6.12h-0.15c-1.34,2.35-2.99,4.11-4.95,5.28s-4.24,1.76-6.84,1.76
			c-3.64,0-6.59-1.07-8.84-3.21c-2.25-2.14-3.37-4.99-3.37-8.53c0-3.34,1.14-6.11,3.41-8.3c2.28-2.19,5.5-3.6,9.67-4.21l11.07-1.49
			v-0.88c0-3.29-0.76-5.63-2.28-7.02c-1.52-1.39-3.54-2.08-6.07-2.08c-2.02,0-3.97,0.38-5.84,1.15c-1.87,0.77-3.63,1.94-5.27,3.52
			l-3.64-3.79c2.17-2.12,4.49-3.67,6.94-4.67c2.45-1,5.18-1.49,8.19-1.49c4.7,0,8.24,1.22,10.62,3.65
			c2.38,2.44,3.56,6.09,3.56,10.96V109.17z M673.81,93.26v-3.9l-9.37,1.3c-2.86,0.41-5,1.14-6.45,2.18
			c-1.44,1.05-2.16,2.69-2.16,4.94c0,2.35,0.68,4.14,2.03,5.38c1.35,1.24,3,1.86,4.95,1.86c3.36,0,6.04-1.11,8.02-3.33
			C672.81,99.46,673.81,96.65,673.81,93.26z"/>
		<path class="st0" d="M724.28,109.17h-6.22V86.83c0-4.16-0.75-7.27-2.26-9.35s-3.76-3.12-6.77-3.12c-3.11,0-5.68,1.18-7.72,3.54
			s-3.05,5.34-3.05,8.93v22.34h-6.22V70h6.22v6.5h0.15c1.47-2.47,3.26-4.33,5.38-5.57c2.12-1.24,4.58-1.86,7.36-1.86
			c4.25,0,7.49,1.38,9.75,4.15c2.25,2.77,3.38,6.77,3.38,11.99V109.17z"/>
		<path class="st0" d="M763.29,106.84c-1.8,1.12-3.59,1.95-5.38,2.47s-3.75,0.78-5.88,0.78c-5.46,0-9.94-1.71-13.44-5.13
			s-5.25-8.26-5.25-14.54c0-6.38,1.76-11.53,5.29-15.46s8.37-5.89,14.54-5.89c2,0,3.9,0.24,5.71,0.73c1.81,0.49,3.63,1.28,5.48,2.37
			l-2.62,4.59c-1.44-0.82-2.86-1.42-4.25-1.8c-1.39-0.38-2.91-0.57-4.55-0.57c-4.27,0-7.55,1.44-9.82,4.32
			c-2.28,2.88-3.41,6.54-3.41,10.98c0,4.9,1.19,8.63,3.58,11.21c2.39,2.58,5.48,3.86,9.27,3.86c1.24,0,2.53-0.2,3.89-0.59
			s2.71-1.01,4.08-1.86L763.29,106.84z"/>
		<path class="st0" d="M803.07,91h-27.45c0.1,4.41,1.26,7.81,3.47,10.2c2.21,2.38,5.31,3.58,9.31,3.58c1.74,0,3.5-0.26,5.25-0.78
			s3.49-1.36,5.21-2.51l2.88,4.48c-2.2,1.43-4.4,2.47-6.6,3.14c-2.2,0.66-4.61,0.99-7.24,0.99c-5.86,0-10.44-1.76-13.73-5.28
			s-4.94-8.43-4.97-14.73c-0.03-6.3,1.62-11.38,4.95-15.23c3.32-3.85,7.64-5.78,12.95-5.78c5.06,0,8.98,1.66,11.77,4.99
			c2.79,3.33,4.19,7.94,4.19,13.83V91z M796.7,85.88c-0.03-3.62-0.9-6.45-2.62-8.47c-1.72-2.03-4.08-3.04-7.09-3.04
			c-2.96,0-5.47,1.04-7.53,3.12c-2.06,2.08-3.32,4.88-3.77,8.4H796.7z"/>
	</g>
</g>
<path class="st0" d="M24.42,144.29h47.44c6.24,0,11.35-5.11,11.35-11.35V25.49c0-6.24-5.11-11.35-11.35-11.35l-47.44,0
	c-6.24,0-11.35,5.11-11.35,11.35l0,107.45C13.07,139.18,18.18,144.29,24.42,144.29z"/>
<path class="st1" d="M130.15,14.14h-19.22c-6.24,0-11.35,5.11-11.35,11.35v107.45c0,6.24,5.11,11.35,11.35,11.35h19.22
	c6.24,0,11.35-5.11,11.35-11.35V25.49C141.5,19.24,136.39,14.14,130.15,14.14z"/>
<path class="st2" d="M169.21,75.52h20.73c6.24,0,11.35-5.11,11.35-11.35V25.49c0-6.24-5.11-11.35-11.35-11.35h-20.73
	c-6.24,0-11.35,5.11-11.35,11.35v38.68C157.86,70.41,162.96,75.52,169.21,75.52z"/>
<path class="st2" d="M169.21,144.29h20.73c6.24,0,11.35-5.11,11.35-11.35V94.26c0-6.24-5.11-11.35-11.35-11.35h-20.73
	c-6.24,0-11.35,5.11-11.35,11.35v38.68C157.86,139.18,162.96,144.29,169.21,144.29z"/>
</svg>
