<?xml version="1.0" encoding="utf-8"?>
<!-- Generator: Adobe Illustrator 26.0.1, SVG Export Plug-In . SVG Version: 6.00 Build 0)  -->
<svg version="1.1" id="Layer_1" xmlns="http://www.w3.org/2000/svg" xmlns:xlink="http://www.w3.org/1999/xlink" x="0px" y="0px"
	 viewBox="0 0 343.95 275.16" style="enable-background:new 0 0 343.95 275.16;" xml:space="preserve">
<style type="text/css">
	.st0{opacity:0.6;fill:#4F62AD;}
	.st1{fill:#EDEEEF;}
	.st2{fill:#D8D8D6;}
	.st3{fill:#606161;}
	.st4{fill:#E5E4E3;}
	.st5{fill:#464748;}
	.st6{fill:#FFCD73;}
	.st7{fill:#F7911E;}
	.st8{fill:#F9B46E;}
	.st9{fill:#CBDE72;}
	.st10{fill:#7FA33F;}
	.st11{fill:#AEC679;}
	.st12{fill:#B9D64B;}
	.st13{fill:#DAE7A0;}
	.st14{fill:#CADE76;}
	.st15{fill:#595A5A;}
	.st16{fill:#232323;}
	.st17{fill:#D6E37E;}
	.st18{fill:#8E8E8D;}
	.st19{fill:#4F504E;}
	.st20{fill:#FFFFFF;}
	.st21{fill:#333232;}
	.st22{fill:#279CB7;}
</style>
<path class="st0" d="M205.13,272.23h-66.31c-73.88,0-133.77-59.89-133.77-133.77v0C5.05,64.58,64.94,4.69,138.82,4.69h66.31
	c73.88,0,133.77,59.89,133.77,133.77v0C338.89,212.34,279.01,272.23,205.13,272.23z"/>
<g>
	<path class="st1" d="M76.32,151.8H29.26c-7.04,0-12.75-5.71-12.75-12.75V98.35c0-7.04,5.71-12.75,12.75-12.75h47.06
		c7.04,0,12.75,5.71,12.75,12.75v40.69C89.07,146.09,83.36,151.8,76.32,151.8z"/>
	<path class="st2" d="M23,151.8L23,151.8c-3.58,0-6.49-2.9-6.49-6.49V92.09c0-3.58,2.9-6.49,6.49-6.49h0c3.58,0,6.49,2.9,6.49,6.49
		v53.22C29.48,148.89,26.58,151.8,23,151.8z"/>
</g>
<path class="st1" d="M159.65,188.31H72.71c-2.67,0-4.84-2.17-4.84-4.84V61.25c0-2.67,2.17-4.84,4.84-4.84h86.94
	c2.67,0,4.84,2.17,4.84,4.84v122.22C164.49,186.14,162.33,188.31,159.65,188.31z"/>
<path class="st2" d="M76.82,188.31L76.82,188.31c-4.94,0-8.94-4-8.94-8.94V65.35c0-4.94,4-8.94,8.94-8.94h0c4.94,0,8.94,4,8.94,8.94
	v114.02C85.76,184.31,81.75,188.31,76.82,188.31z"/>
<g>
	<path class="st3" d="M149.7,175.32H101c-1.77,0-3.21-1.45-3.21-3.21v-29.53c0-1.77,1.45-3.21,3.21-3.21h48.69
		c1.77,0,3.21,1.45,3.21,3.21v29.53C152.91,173.87,151.46,175.32,149.7,175.32z"/>
	<path class="st4" d="M146.32,162.95h-2.59c-2.19,0-3.96-1.77-3.96-3.96v-1.96c0-2.19,1.77-3.96,3.96-3.96h2.59
		c2.19,0,3.96,1.77,3.96,3.96v1.96C150.28,161.18,148.5,162.95,146.32,162.95z"/>
	<rect x="97.66" y="144.17" class="st5" width="55.25" height="6.29"/>
	<path class="st4" d="M117.98,163.86h-13.44c-2.31,0-4.18-1.87-4.18-4.18v-2.07c0-2.31,1.87-4.18,4.18-4.18h13.44
		c2.31,0,4.18,1.87,4.18,4.18v2.07C122.16,161.99,120.29,163.86,117.98,163.86z"/>
	<path class="st4" d="M148.78,171.51h-46.85c-0.77,0-1.39-0.62-1.39-1.39v-1.88c0-0.77,0.62-1.39,1.39-1.39h46.85
		c0.77,0,1.39,0.62,1.39,1.39v1.88C150.17,170.88,149.55,171.51,148.78,171.51z"/>
</g>
<g>
	<path class="st6" d="M144.06,196.14h-0.64c-8.19,0-14.9-6.7-14.9-14.9v0c0-8.19,6.7-14.9,14.9-14.9h0.64c8.19,0,14.9,6.7,14.9,14.9
		v0C158.96,189.44,152.26,196.14,144.06,196.14z"/>
	<path class="st7" d="M143.97,192.03h-0.47c-5.96,0-10.79-4.83-10.79-10.79v0c0-5.96,4.83-10.79,10.79-10.79h0.47
		c5.96,0,10.79,4.83,10.79,10.79v0C154.76,187.2,149.93,192.03,143.97,192.03z"/>
	<g>
		<path class="st8" d="M147.21,187.23l-9.58-9.38c-0.73-0.71-0.73-1.88,0-2.6v0c0.73-0.71,1.93-0.71,2.66,0l9.58,9.38
			c0.73,0.71,0.73,1.88,0,2.6l0,0C149.13,187.95,147.94,187.95,147.21,187.23z"/>
	</g>
</g>
<g>
	<path class="st4" d="M124.69,74.1H95.53c-1.51,0-2.73-1.22-2.73-2.73l0,0c0-1.51,1.22-2.73,2.73-2.73h29.16
		c1.51,0,2.73,1.22,2.73,2.73l0,0C127.42,72.88,126.2,74.1,124.69,74.1z"/>
	<path class="st4" d="M136.84,81.54H95.53c-1.51,0-2.73-1.22-2.73-2.73l0,0c0-1.51,1.22-2.73,2.73-2.73h41.31
		c1.51,0,2.73,1.22,2.73,2.73l0,0C139.57,80.32,138.35,81.54,136.84,81.54z"/>
</g>
<g>
	<path class="st4" d="M54.6,105.1H35.5c-1.19,0-2.15-0.96-2.15-2.15v-1.47c0-1.19,0.96-2.15,2.15-2.15h19.1
		c1.19,0,2.15,0.96,2.15,2.15v1.47C56.75,104.13,55.79,105.1,54.6,105.1z"/>
	<path class="st4" d="M62.82,112.97H35.5c-1.19,0-2.15-0.96-2.15-2.15v-1.47c0-1.19,0.96-2.15,2.15-2.15h27.32
		c1.19,0,2.15,0.96,2.15,2.15v1.47C64.97,112,64,112.97,62.82,112.97z"/>
</g>
<g>
	<path class="st4" d="M147.68,130.7H95.75c-1.51,0-2.73-1.22-2.73-2.73V92.5c0-1.51,1.22-2.73,2.73-2.73h51.93
		c1.51,0,2.73,1.22,2.73,2.73v35.47C150.41,129.48,149.19,130.7,147.68,130.7z"/>
</g>
<g>
	<g>
		<g>
			<rect x="38.75" y="177.46" class="st9" width="69.64" height="32.25"/>
		</g>
	</g>
	<g>
		<g>
			<rect x="43.8" y="182.26" class="st10" width="61.07" height="23.87"/>
		</g>
	</g>
	<g>
		<g>
			<rect x="47.48" y="186.61" class="st11" width="47.54" height="14.56"/>
		</g>
	</g>
	<g>
		<path class="st12" d="M92.48,201.17L92.48,201.17c-4.16,0-7.56-3.4-7.56-7.56v-0.06c0-4.16,3.4-7.56,7.56-7.56h0
			c4.16,0,7.56,3.4,7.56,7.56v0.06C100.04,197.77,96.64,201.17,92.48,201.17z"/>
		<path class="st13" d="M92.48,199.08L92.48,199.08c-3.02,0-5.47-2.45-5.47-5.47v-0.05c0-3.02,2.45-5.47,5.47-5.47h0
			c3.02,0,5.47,2.45,5.47,5.47v0.05C97.95,196.63,95.5,199.08,92.48,199.08z"/>
		<g>
			<g>
				<path class="st14" d="M92.84,197.85l-4.83-4.7c-0.37-0.36,0.05-1.39,0.94-2.29h0c0.88-0.9,1.91-1.34,2.28-0.98l4.83,4.7
					c0.37,0.36-0.05,1.39-0.94,2.29h0C94.23,197.77,93.21,198.21,92.84,197.85z"/>
			</g>
		</g>
	</g>
</g>
<g>
	<path class="st6" d="M124.08,213.6h-1.05c-8.69,0-15.79-7.11-15.79-15.79v0c0-8.69,7.11-15.79,15.79-15.79h1.05
		c8.69,0,15.79,7.11,15.79,15.79v0C139.87,206.49,132.76,213.6,124.08,213.6z"/>
	<path class="st7" d="M123.93,209.24h-0.76c-6.31,0-11.43-5.12-11.43-11.43v0c0-6.31,5.12-11.43,11.43-11.43h0.76
		c6.31,0,11.43,5.12,11.43,11.43v0C135.37,204.12,130.25,209.24,123.93,209.24z"/>
	<g>
		<path class="st8" d="M127.27,204.15l-10.27-9.94c-0.78-0.76-0.78-2,0-2.76h0c0.78-0.76,2.06-0.76,2.85,0l10.27,9.94
			c0.78,0.76,0.78,2,0,2.76l0,0C129.33,204.91,128.05,204.91,127.27,204.15z"/>
	</g>
</g>
<g>
	<g>
		<g>
			
				<rect x="56.69" y="171.03" transform="matrix(0.4702 -0.8826 0.8826 0.4702 -143.0955 173.3227)" class="st9" width="32.25" height="69.64"/>
		</g>
	</g>
	<g>
		<g>
			
				<rect x="61.26" y="176.21" transform="matrix(0.4702 -0.8826 0.8826 0.4702 -143.6892 174.1456)" class="st10" width="23.87" height="61.07"/>
		</g>
	</g>
	<g>
		<g>
			
				<rect x="63.34" y="181.26" transform="matrix(0.4702 -0.8826 0.8826 0.4702 -143.5367 170.9567)" class="st11" width="14.56" height="47.54"/>
		</g>
	</g>
	<g>
		<path class="st12" d="M85.93,221.43L85.93,221.43c-3.67-1.95-5.07-6.56-3.12-10.23l0.03-0.06c1.95-3.67,6.56-5.07,10.23-3.12h0
			c3.67,1.95,5.07,6.56,3.12,10.23l-0.03,0.06C94.2,221.99,89.6,223.39,85.93,221.43z"/>
		<path class="st13" d="M86.92,219.59L86.92,219.59c-2.67-1.42-3.68-4.74-2.26-7.4l0.02-0.04c1.42-2.67,4.74-3.68,7.4-2.26l0,0
			c2.67,1.42,3.68,4.74,2.26,7.4l-0.02,0.04C92.9,220,89.59,221.01,86.92,219.59z"/>
		<g>
			<g>
				<path class="st14" d="M87.81,218.67l-2.05-6.42c-0.16-0.49,0.7-1.2,1.9-1.58h0c1.2-0.38,2.31-0.29,2.47,0.2l2.05,6.42
					c0.16,0.49-0.7,1.2-1.9,1.58h0C89.08,219.26,87.96,219.16,87.81,218.67z"/>
			</g>
		</g>
	</g>
</g>
<g>
	<path class="st15" d="M69.97,220.4H30.9c-4.31,0-7.8-3.49-7.8-7.8v-64.2c0-4.31,3.49-7.8,7.8-7.8h39.07c4.31,0,7.8,3.49,7.8,7.8
		v64.2C77.77,216.91,74.27,220.4,69.97,220.4z"/>
	<path class="st12" d="M67.15,162.26H33.72c-3.55,0-6.42-2.87-6.42-6.42v-0.58c0-3.55,2.87-6.42,6.42-6.42h33.43
		c3.55,0,6.42,2.87,6.42,6.42v0.58C73.57,159.39,70.7,162.26,67.15,162.26z"/>
	<g>
		<path class="st16" d="M57.82,180.08h-3.14c-1.95,0-3.53-1.58-3.53-3.53v-1.4c0-1.95,1.58-3.53,3.53-3.53h3.14
			c1.95,0,3.53,1.58,3.53,3.53v1.4C61.35,178.5,59.77,180.08,57.82,180.08z"/>
		<path class="st16" d="M46.4,180.08h-3.14c-1.95,0-3.53-1.58-3.53-3.53v-1.4c0-1.95,1.58-3.53,3.53-3.53h3.14
			c1.95,0,3.53,1.58,3.53,3.53v1.4C49.93,178.5,48.35,180.08,46.4,180.08z"/>
		<path class="st16" d="M69.07,180.08h-3.14c-1.95,0-3.53-1.58-3.53-3.53v-1.4c0-1.95,1.58-3.53,3.53-3.53h3.14
			c1.95,0,3.53,1.58,3.53,3.53v1.4C72.6,178.5,71.02,180.08,69.07,180.08z"/>
		<path class="st16" d="M35.11,180.08h-3.14c-1.95,0-3.53-1.58-3.53-3.53v-1.4c0-1.95,1.58-3.53,3.53-3.53h3.14
			c1.95,0,3.53,1.58,3.53,3.53v1.4C38.63,178.5,37.06,180.08,35.11,180.08z"/>
	</g>
	<g>
		<path class="st16" d="M58.04,191.05H54.9c-1.95,0-3.53-1.58-3.53-3.53v-1.4c0-1.95,1.58-3.53,3.53-3.53h3.14
			c1.95,0,3.53,1.58,3.53,3.53v1.4C61.56,189.48,59.99,191.05,58.04,191.05z"/>
		<path class="st16" d="M46.62,191.05h-3.14c-1.95,0-3.53-1.58-3.53-3.53v-1.4c0-1.95,1.58-3.53,3.53-3.53h3.14
			c1.95,0,3.53,1.58,3.53,3.53v1.4C50.14,189.48,48.56,191.05,46.62,191.05z"/>
		<path class="st16" d="M69.28,191.05h-3.14c-1.95,0-3.53-1.58-3.53-3.53v-1.4c0-1.95,1.58-3.53,3.53-3.53h3.14
			c1.95,0,3.53,1.58,3.53,3.53v1.4C72.81,189.48,71.23,191.05,69.28,191.05z"/>
		<path class="st16" d="M35.32,191.05h-3.14c-1.95,0-3.53-1.58-3.53-3.53v-1.4c0-1.95,1.58-3.53,3.53-3.53h3.14
			c1.95,0,3.53,1.58,3.53,3.53v1.4C38.85,189.48,37.27,191.05,35.32,191.05z"/>
	</g>
	<g>
		<path class="st16" d="M57.45,202.03h-3.14c-1.95,0-3.53-1.58-3.53-3.53v-1.4c0-1.95,1.58-3.53,3.53-3.53h3.14
			c1.95,0,3.53,1.58,3.53,3.53v1.4C60.97,200.45,59.4,202.03,57.45,202.03z"/>
		<path class="st16" d="M46.03,202.03h-3.14c-1.95,0-3.53-1.58-3.53-3.53v-1.4c0-1.95,1.58-3.53,3.53-3.53h3.14
			c1.95,0,3.53,1.58,3.53,3.53v1.4C49.55,200.45,47.97,202.03,46.03,202.03z"/>
		<path class="st16" d="M68.69,202.03h-3.14c-1.95,0-3.53-1.58-3.53-3.53v-1.4c0-1.95,1.58-3.53,3.53-3.53h3.14
			c1.95,0,3.53,1.58,3.53,3.53v1.4C72.22,200.45,70.64,202.03,68.69,202.03z"/>
		<path class="st16" d="M34.73,202.03h-3.14c-1.95,0-3.53-1.58-3.53-3.53v-1.4c0-1.95,1.58-3.53,3.53-3.53h3.14
			c1.95,0,3.53,1.58,3.53,3.53v1.4C38.26,200.45,36.68,202.03,34.73,202.03z"/>
	</g>
	<path class="st17" d="M67.1,162.26H43.26c-3.55,0-6.42-2.87-6.42-6.42v-0.58c0-3.55,2.87-6.42,6.42-6.42H67.1
		c3.55,0,6.42,2.87,6.42,6.42v0.58C73.52,159.39,70.65,162.26,67.1,162.26z"/>
	<path class="st18" d="M45.62,214.29H32.19c-1.95,0-3.53-1.58-3.53-3.53v-1.4c0-1.95,1.58-3.53,3.53-3.53h13.43
		c1.95,0,3.53,1.58,3.53,3.53v1.4C49.14,212.71,47.57,214.29,45.62,214.29z"/>
	<path class="st16" d="M68.07,214.29H54.63c-1.95,0-3.53-1.58-3.53-3.53v-1.4c0-1.95,1.58-3.53,3.53-3.53h13.43
		c1.95,0,3.53,1.58,3.53,3.53v1.4C71.59,212.71,70.01,214.29,68.07,214.29z"/>
</g>
<g>
	<g>
		<path class="st19" d="M317.79,173H190.27c-1.51,0-2.73-1.22-2.73-2.73V86.86c0-1.51,1.22-2.73,2.73-2.73h127.52
			c1.51,0,2.73,1.22,2.73,2.73v83.41C320.52,171.78,319.3,173,317.79,173z"/>
	</g>
	<g>
		<path class="st4" d="M310.47,163.49H198.21c-1.51,0-2.73-1.22-2.73-2.73V96.38c0-1.51,1.22-2.73,2.73-2.73h112.26
			c1.51,0,2.73,1.22,2.73,2.73v64.38C313.2,162.27,311.98,163.49,310.47,163.49z"/>
	</g>
	<g>
		<path class="st20" d="M306.64,160.63H202.71c-1.97,0-3.56-1.6-3.56-3.56V99.93c0-1.97,1.6-3.56,3.56-3.56h103.93
			c1.97,0,3.56,1.6,3.56,3.56v57.13C310.2,159.03,308.61,160.63,306.64,160.63z"/>
	</g>
	<g>
		<path class="st21" d="M307.87,197.91H207.48c-2.95,0-5.33-2.39-5.33-5.33v-0.46c0-2.95,2.39-5.33,5.33-5.33h100.39
			c2.95,0,5.33,2.39,5.33,5.33v0.46C313.2,195.53,310.81,197.91,307.87,197.91z"/>
	</g>
	<g>
		<path class="st21" d="M263.17,170.89v20.49c0,2.95-2.39,5.33-5.33,5.33h-0.33c-2.95,0-5.33-2.39-5.33-5.33v-20.49
			c0-2.95,2.39-5.33,5.33-5.33h0.33C260.79,165.55,263.17,167.94,263.17,170.89z"/>
	</g>
	<g>
		<polygon class="st22" points="342.07,137.36 277.8,183.22 271.14,174.11 335.41,128.25 		"/>
		<polygon class="st22" points="341.82,137.55 328.45,175.55 318.07,172.3 331.45,134.29 		"/>
		<polygon class="st22" points="279.95,168.42 300.33,194.39 291.9,200.83 271.52,174.86 		"/>
		<polygon class="st22" points="299.91,194.77 238.01,243.7 230.47,234.44 292.37,185.51 		"/>
		<polygon class="st22" points="337.66,139.61 289.39,147.69 287.74,136.5 336.01,128.41 		"/>
	</g>
	<path class="st4" d="M245.05,139.46h-29.15c-2.09,0-3.78-1.69-3.78-3.78v-0.33c0-2.09,1.69-3.78,3.78-3.78h29.15
		c2.09,0,3.78,1.69,3.78,3.78v0.33C248.83,137.77,247.14,139.46,245.05,139.46z"/>
	<path class="st4" d="M272.69,113.76h-55.94c-2.09,0-3.78-1.69-3.78-3.78v-0.33c0-2.09,1.69-3.78,3.78-3.78h55.94
		c2.09,0,3.78,1.69,3.78,3.78v0.33C276.47,112.07,274.78,113.76,272.69,113.76z"/>
	<path class="st4" d="M259.39,126.9h-43.5c-2.09,0-3.78-1.69-3.78-3.78v-0.33c0-2.09,1.69-3.78,3.78-3.78h43.5
		c2.09,0,3.78,1.69,3.78,3.78v0.33C263.17,125.21,261.48,126.9,259.39,126.9z"/>
	<path class="st4" d="M264.8,152.02h-48.91c-2.09,0-3.78-1.69-3.78-3.78v-0.33c0-2.09,1.69-3.78,3.78-3.78h48.91
		c2.09,0,3.78,1.69,3.78,3.78v0.33C268.59,150.32,266.89,152.02,264.8,152.02z"/>
</g>
</svg>
